# xmcd
#
# Track frame offsets: 
#        150
#        20942
#        40655
#        57095
#        89950
#        117475
#        144375
#        161432
#
# Disc length: 2599 seconds
#
# Revision: 4
# Processed by: cddbd v1.5.2PL0 Copyright (c) Steve Scherf et al.
# Submitted via: ExactAudioCopy v0.99pb4
#
DISCID=6e0a2508
DTITLE=Deep Purple - Shades Of Deep PurPle
DYEAR=1968
DGENRE=Hard Rock
TTITLE0=And The Address
TTITLE1=Hush
TTITLE2=One More Rain Day
TTITLE3=Happiness , I'm So Glad
TTITLE4=Mandrake Root
TTITLE5=Help
TTITLE6=Love Help Me
TTITLE7=Hey Joe
EXTD=YEAR: 1968
EXTT0=
EXTT1=
EXTT2=
EXTT3=
EXTT4=
EXTT5=
EXTT6=
EXTT7=
PLAYORDER=
